<?xml version="1.0" encoding="utf-8"?>
<!-- Generator: Adobe Illustrator 14.0.0, SVG Export Plug-In . SVG Version: 6.00 Build 43363)  -->
<!DOCTYPE svg PUBLIC "-//W3C//DTD SVG 1.1//EN" "http://www.w3.org/Graphics/SVG/1.1/DTD/svg11.dtd">
<svg version="1.1" id="Layer_1" xmlns="http://www.w3.org/2000/svg" xmlns:xlink="http://www.w3.org/1999/xlink" x="0px" y="0px"
	 width="141.653px" height="141.653px" viewBox="0 0 141.653 141.653" enable-background="new 0 0 141.653 141.653"
	 xml:space="preserve">
<circle fill="#DE1F26" cx="70.949" cy="70.768" r="70.5"/>
<circle fill="none" stroke="#FFFFFF" stroke-width="2" cx="70.949" cy="70.768" r="67.25"/>
<g>
	<path fill="#FFFFFF" d="M28.649,52.916h5.744c0.834,0,1.62,0.062,2.356,0.184c0.736,0.123,1.375,0.332,1.915,0.626
		s0.969,0.7,1.289,1.215c0.319,0.515,0.479,1.166,0.479,1.951c0,0.344-0.049,0.691-0.147,1.043s-0.258,0.687-0.479,1.006
		c-0.221,0.319-0.499,0.601-0.834,0.847s-0.732,0.426-1.19,0.54v0.098c1.129,0.229,1.976,0.643,2.541,1.24s0.847,1.428,0.847,2.491
		c0,0.818-0.168,1.526-0.503,2.124c-0.335,0.598-0.786,1.089-1.35,1.473c-0.564,0.385-1.231,0.667-2,0.848
		c-0.77,0.18-1.58,0.27-2.43,0.27h-6.235V52.916z M34.295,59.2c0.687,0,1.194-0.155,1.521-0.466
		c0.327-0.311,0.491-0.712,0.491-1.203s-0.164-0.843-0.491-1.056c-0.327-0.212-0.834-0.319-1.521-0.319h-1.424V59.2H34.295z
		 M34.589,65.631c1.636,0,2.455-0.605,2.455-1.816c0-0.589-0.201-1.014-0.602-1.276c-0.401-0.261-1.019-0.393-1.853-0.393h-1.718
		v3.485H34.589z"/>
	<path fill="#FFFFFF" d="M43.713,52.916h10.31v3.535h-6.087v2.504h5.204v3.535h-5.204v2.847h6.333v3.535H43.713V52.916z"/>
	<path fill="#FFFFFF" d="M60.306,56.451h-4.222v-3.535H68.75v3.535h-4.222v12.421h-4.222V56.451z"/>
	<path fill="#FFFFFF" d="M74.553,56.451h-4.222v-3.535h12.667v3.535h-4.223v12.421h-4.222V56.451z"/>
	<path fill="#FFFFFF" d="M85.155,52.916h10.31v3.535h-6.088v2.504h5.204v3.535h-5.204v2.847h6.333v3.535H85.155V52.916z"/>
	<path fill="#FFFFFF" d="M107.341,68.872l-2.749-5.351h-1.62v5.351H98.75V52.916h6.038c0.851,0,1.665,0.082,2.442,0.246
		s1.456,0.442,2.037,0.834s1.043,0.92,1.387,1.583c0.344,0.663,0.516,1.493,0.516,2.491c0,1.146-0.233,2.095-0.699,2.847
		c-0.467,0.753-1.093,1.342-1.878,1.768l3.461,6.186H107.341z M102.972,60.182h1.521c1.702,0,2.553-0.703,2.553-2.111
		c0-0.688-0.217-1.162-0.65-1.424c-0.434-0.261-1.067-0.393-1.902-0.393h-1.521V60.182z"/>
</g>
<g>
	<path fill="#FFFFFF" d="M28.676,72.339h11.406c1.657,0,3.217,0.121,4.679,0.365c1.462,0.244,2.729,0.658,3.802,1.243
		s1.925,1.389,2.559,2.412c0.633,1.023,0.95,2.315,0.95,3.875c0,0.683-0.098,1.373-0.292,2.072c-0.195,0.698-0.512,1.364-0.95,1.998
		c-0.439,0.634-0.992,1.194-1.657,1.682c-0.667,0.487-1.455,0.845-2.364,1.072v0.195c2.242,0.455,3.924,1.275,5.045,2.461
		c1.121,1.187,1.682,2.835,1.682,4.947c0,1.625-0.333,3.03-1,4.216c-0.666,1.187-1.56,2.162-2.681,2.925
		c-1.121,0.764-2.445,1.324-3.972,1.682c-1.528,0.358-3.136,0.536-4.826,0.536h-12.38V72.339z M39.887,84.817
		c1.365,0,2.372-0.309,3.022-0.926c0.65-0.617,0.975-1.414,0.975-2.389s-0.325-1.673-0.975-2.096
		c-0.65-0.422-1.657-0.634-3.022-0.634H37.06v6.044H39.887z M40.472,97.587c3.249,0,4.875-1.202,4.875-3.607
		c0-1.17-0.398-2.014-1.194-2.534c-0.797-0.52-2.023-0.78-3.68-0.78H37.06v6.922H40.472z"/>
	<path fill="#FFFFFF" d="M73.636,97.294h-8.871l-1.56,6.727h-8.579l9.651-31.682h10.138l9.65,31.682h-8.871L73.636,97.294z
		 M72.125,90.812l-0.536-2.193c-0.39-1.527-0.78-3.185-1.17-4.972c-0.39-1.786-0.78-3.477-1.169-5.069h-0.195
		c-0.358,1.626-0.723,3.323-1.097,5.094c-0.374,1.771-0.755,3.42-1.146,4.947l-0.536,2.193H72.125z"/>
	<path fill="#FFFFFF" d="M84.752,88.423c0-2.664,0.422-5.027,1.268-7.092c0.845-2.063,1.998-3.802,3.46-5.215
		c1.463-1.414,3.16-2.493,5.094-3.241c1.934-0.747,3.988-1.121,6.166-1.121c2.242,0,4.208,0.414,5.897,1.242
		c1.689,0.829,3.103,1.813,4.241,2.949l-4.582,5.167c-0.78-0.683-1.568-1.211-2.364-1.584c-0.797-0.374-1.827-0.561-3.095-0.561
		c-1.072,0-2.064,0.211-2.974,0.633c-0.91,0.423-1.706,1.024-2.388,1.804c-0.683,0.78-1.211,1.739-1.585,2.876
		c-0.373,1.138-0.561,2.421-0.561,3.851c0,2.99,0.666,5.28,1.999,6.872c1.332,1.593,3.428,2.389,6.287,2.389
		c0.455,0,0.902-0.049,1.341-0.146c0.438-0.097,0.804-0.243,1.097-0.438V92.42h-4.68v-6.823h12.088v15.109
		c-1.169,1.072-2.722,1.991-4.654,2.754c-1.934,0.763-4.021,1.146-6.264,1.146c-2.177,0-4.225-0.334-6.141-0.999
		c-1.918-0.666-3.592-1.674-5.021-3.022c-1.431-1.348-2.56-3.038-3.388-5.069C85.167,93.485,84.752,91.122,84.752,88.423z"/>
</g>
<g>
	<path fill="#FFFFFF" d="M73.048,111.526c0.195,0.156,0.404,0.282,0.629,0.38c0.225,0.097,0.438,0.146,0.638,0.146
		c0.217,0,0.374-0.033,0.471-0.1c0.097-0.067,0.146-0.161,0.146-0.283c0-0.067-0.017-0.123-0.05-0.167
		c-0.033-0.045-0.082-0.086-0.146-0.125s-0.14-0.076-0.229-0.112s-0.192-0.077-0.309-0.121l-0.675-0.283
		c-0.145-0.056-0.283-0.13-0.417-0.222s-0.25-0.2-0.35-0.325s-0.179-0.268-0.238-0.429c-0.058-0.161-0.087-0.339-0.087-0.533
		c0-0.233,0.05-0.452,0.15-0.654c0.1-0.203,0.239-0.381,0.417-0.534c0.178-0.152,0.39-0.273,0.638-0.362
		c0.247-0.089,0.518-0.134,0.813-0.134c0.312,0,0.626,0.059,0.946,0.176c0.319,0.116,0.604,0.3,0.854,0.55l-0.717,0.9
		c-0.184-0.128-0.36-0.226-0.529-0.292c-0.17-0.066-0.354-0.1-0.555-0.1c-0.178,0-0.316,0.03-0.417,0.092
		c-0.1,0.061-0.15,0.152-0.15,0.274c0,0.128,0.071,0.227,0.213,0.296s0.337,0.151,0.587,0.246l0.659,0.259
		c0.339,0.133,0.6,0.319,0.784,0.559c0.183,0.238,0.275,0.547,0.275,0.925c0,0.228-0.047,0.447-0.142,0.658
		c-0.095,0.212-0.232,0.396-0.413,0.555c-0.181,0.158-0.402,0.285-0.663,0.379c-0.262,0.095-0.562,0.142-0.9,0.142
		c-0.345,0-0.699-0.063-1.063-0.188c-0.364-0.125-0.693-0.32-0.988-0.587L73.048,111.526z"/>
	<path fill="#FFFFFF" d="M77.999,108.5c-0.233,0-0.425-0.066-0.575-0.2c-0.15-0.133-0.225-0.306-0.225-0.517
		s0.075-0.384,0.225-0.517c0.15-0.134,0.342-0.2,0.575-0.2s0.425,0.066,0.575,0.2c0.15,0.133,0.225,0.306,0.225,0.517
		s-0.075,0.384-0.225,0.517C78.424,108.434,78.232,108.5,77.999,108.5z M77.282,109.017h1.434v4.168h-1.434V109.017z"/>
	<path fill="#FFFFFF" d="M79.805,109.017h1.167l0.1,0.5h0.034c0.166-0.161,0.356-0.301,0.57-0.421
		c0.214-0.119,0.463-0.179,0.746-0.179c0.456,0,0.786,0.154,0.992,0.462c0.205,0.309,0.309,0.722,0.309,1.238v2.567h-1.434v-2.384
		c0-0.267-0.033-0.444-0.101-0.533c-0.066-0.089-0.171-0.134-0.316-0.134c-0.134,0-0.245,0.027-0.334,0.083s-0.188,0.134-0.3,0.233
		v2.734h-1.434V109.017z"/>
	<path fill="#FFFFFF" d="M84.561,111.101c0-0.345,0.062-0.653,0.184-0.925c0.122-0.272,0.286-0.502,0.492-0.688
		c0.205-0.186,0.442-0.327,0.712-0.425c0.27-0.097,0.552-0.146,0.847-0.146c0.25,0,0.479,0.041,0.688,0.125
		c0.208,0.083,0.385,0.197,0.529,0.342l-0.65,0.884c-0.095-0.078-0.179-0.131-0.254-0.159c-0.075-0.027-0.151-0.041-0.229-0.041
		c-0.267,0-0.475,0.093-0.625,0.279c-0.15,0.186-0.226,0.438-0.226,0.754s0.077,0.568,0.229,0.755
		c0.153,0.186,0.343,0.279,0.571,0.279c0.133,0,0.254-0.028,0.362-0.084s0.21-0.116,0.305-0.184l0.566,0.9
		c-0.211,0.184-0.443,0.315-0.696,0.396c-0.253,0.08-0.487,0.12-0.704,0.12c-0.295,0-0.569-0.048-0.825-0.146
		c-0.256-0.097-0.478-0.239-0.667-0.425c-0.188-0.187-0.337-0.416-0.445-0.688C84.616,111.754,84.561,111.446,84.561,111.101z"/>
	<path fill="#FFFFFF" d="M88.496,111.101c0-0.339,0.057-0.644,0.171-0.913s0.264-0.498,0.45-0.688
		c0.187-0.188,0.398-0.333,0.638-0.434c0.239-0.1,0.486-0.149,0.742-0.149c0.306,0,0.572,0.053,0.8,0.158s0.417,0.25,0.567,0.434
		c0.149,0.184,0.262,0.397,0.337,0.642s0.112,0.506,0.112,0.783c0,0.128-0.007,0.242-0.021,0.342
		c-0.014,0.101-0.026,0.176-0.037,0.226h-2.376c0.066,0.267,0.187,0.45,0.358,0.55c0.172,0.101,0.375,0.15,0.608,0.15
		c0.145,0,0.285-0.021,0.421-0.063c0.137-0.042,0.279-0.104,0.43-0.188l0.467,0.85c-0.229,0.161-0.479,0.282-0.755,0.363
		c-0.274,0.08-0.529,0.12-0.763,0.12c-0.306,0-0.589-0.048-0.85-0.146c-0.262-0.097-0.488-0.239-0.68-0.425
		c-0.191-0.187-0.343-0.416-0.454-0.688C88.551,111.754,88.496,111.446,88.496,111.101z M91.096,110.634
		c0-0.178-0.04-0.328-0.12-0.45C90.895,110.062,90.747,110,90.53,110c-0.161,0-0.302,0.048-0.421,0.142
		c-0.12,0.095-0.202,0.259-0.246,0.492H91.096z"/>
	<path fill="#FFFFFF" d="M94.664,112.369c0.312-0.289,0.602-0.562,0.871-0.817s0.505-0.496,0.705-0.721
		c0.199-0.226,0.356-0.439,0.471-0.643c0.113-0.202,0.171-0.393,0.171-0.57c0-0.239-0.06-0.416-0.18-0.529
		c-0.119-0.114-0.276-0.171-0.471-0.171c-0.178,0-0.335,0.051-0.471,0.154c-0.137,0.103-0.269,0.218-0.396,0.346l-0.767-0.767
		c0.139-0.145,0.275-0.271,0.408-0.38c0.134-0.108,0.273-0.197,0.421-0.267s0.303-0.121,0.467-0.154s0.344-0.05,0.538-0.05
		c0.267,0,0.511,0.042,0.733,0.125s0.414,0.2,0.575,0.35c0.161,0.15,0.286,0.333,0.375,0.547s0.134,0.451,0.134,0.712
		c0,0.212-0.046,0.427-0.138,0.646s-0.21,0.438-0.354,0.654s-0.307,0.428-0.487,0.634c-0.181,0.205-0.36,0.399-0.538,0.583
		c0.134-0.017,0.285-0.032,0.454-0.046c0.17-0.014,0.313-0.021,0.43-0.021h0.884v1.2h-3.835V112.369z"/>
	<path fill="#FFFFFF" d="M101.227,113.285c-0.295,0-0.562-0.06-0.801-0.179s-0.445-0.296-0.621-0.529
		c-0.175-0.233-0.31-0.522-0.404-0.867s-0.142-0.741-0.142-1.191s0.047-0.847,0.142-1.188s0.229-0.625,0.404-0.85
		c0.176-0.226,0.382-0.395,0.621-0.509s0.506-0.171,0.801-0.171c0.288,0,0.554,0.057,0.796,0.171
		c0.241,0.114,0.45,0.285,0.625,0.513s0.31,0.511,0.404,0.851c0.095,0.339,0.142,0.733,0.142,1.184s-0.047,0.847-0.142,1.191
		s-0.229,0.634-0.404,0.867s-0.384,0.41-0.625,0.529C101.781,113.225,101.515,113.285,101.227,113.285z M101.227,112.185
		c0.083,0,0.162-0.021,0.237-0.063c0.075-0.042,0.141-0.124,0.195-0.246c0.056-0.122,0.101-0.292,0.134-0.509s0.05-0.5,0.05-0.85
		c0-0.351-0.017-0.631-0.05-0.843c-0.033-0.211-0.078-0.375-0.134-0.491c-0.055-0.117-0.12-0.193-0.195-0.229
		s-0.154-0.054-0.237-0.054c-0.084,0-0.163,0.018-0.238,0.054c-0.074,0.036-0.14,0.112-0.195,0.229
		c-0.056,0.116-0.101,0.28-0.134,0.491c-0.033,0.212-0.05,0.492-0.05,0.843c0,0.35,0.017,0.633,0.05,0.85s0.078,0.387,0.134,0.509
		s0.121,0.204,0.195,0.246C101.064,112.164,101.143,112.185,101.227,112.185z"/>
	<path fill="#FFFFFF" d="M104.027,112.035h1.134V109.3h-1v-0.883c0.3-0.062,0.556-0.131,0.767-0.209
		c0.211-0.077,0.417-0.181,0.617-0.309h1.05v4.135h0.95v1.15h-3.518V112.035z"/>
	<path fill="#FFFFFF" d="M108.436,111.834c0-0.311,0.082-0.563,0.246-0.759c0.164-0.194,0.371-0.358,0.621-0.491v-0.033
		c-0.211-0.161-0.381-0.341-0.508-0.538c-0.128-0.197-0.192-0.435-0.192-0.713c0-0.233,0.043-0.442,0.13-0.629
		c0.086-0.187,0.208-0.343,0.366-0.471s0.345-0.227,0.559-0.296s0.451-0.104,0.713-0.104c0.244,0,0.468,0.035,0.671,0.104
		s0.376,0.166,0.521,0.291s0.258,0.279,0.338,0.463c0.081,0.184,0.121,0.387,0.121,0.608c0,0.245-0.065,0.46-0.196,0.646
		c-0.131,0.186-0.29,0.34-0.479,0.462v0.034c0.262,0.139,0.479,0.317,0.65,0.537c0.173,0.22,0.259,0.505,0.259,0.854
		c0,0.211-0.046,0.407-0.138,0.588s-0.223,0.338-0.392,0.471c-0.17,0.134-0.374,0.237-0.613,0.313
		c-0.238,0.075-0.503,0.112-0.791,0.112c-0.268,0-0.516-0.034-0.746-0.104c-0.231-0.069-0.431-0.168-0.601-0.296
		s-0.302-0.281-0.396-0.459C108.484,112.249,108.436,112.051,108.436,111.834z M109.662,111.668c0,0.211,0.069,0.369,0.209,0.475
		c0.139,0.105,0.3,0.158,0.483,0.158c0.161,0,0.297-0.041,0.408-0.125c0.111-0.083,0.167-0.225,0.167-0.425
		c0-0.095-0.022-0.178-0.067-0.25c-0.044-0.072-0.109-0.138-0.195-0.196s-0.19-0.115-0.313-0.171
		c-0.123-0.056-0.262-0.116-0.417-0.184c-0.078,0.095-0.144,0.205-0.196,0.33S109.662,111.535,109.662,111.668z M110.637,110.035
		c0.155-0.223,0.233-0.445,0.233-0.667c0-0.184-0.047-0.327-0.142-0.43s-0.226-0.154-0.392-0.154c-0.128,0-0.241,0.04-0.338,0.121
		c-0.098,0.08-0.146,0.213-0.146,0.396c0,0.179,0.067,0.32,0.204,0.426C110.194,109.832,110.387,109.934,110.637,110.035z"/>
</g>
<path id="path-1" fill="#FFFFFF" d="M106.416,35.912c-0.104-1.813-1.434-2.771-3.844-2.771c-1.896,0-3.074,0.752-3.074,1.962
	c0,1.347,1.166,1.884,3.048,2.315l2.341,0.525c3.848,0.896,5.933,2.038,5.933,5.502c0,1.901-0.722,3.473-2.084,4.544
	c-1.38,1.085-3.427,1.66-5.919,1.66c-4.995,0-7.86-2.415-7.86-6.625v-0.085h3.911l0.001,0.083c0.173,2.242,1.578,3.332,4.298,3.332
	c2.264,0,3.67-0.926,3.67-2.418c0-1.268-0.957-1.738-2.839-2.209l-2.761-0.701c-2.056-0.507-3.43-1.103-4.32-1.878
	c-0.979-0.853-1.436-1.948-1.436-3.448c0-1.719,0.658-3.168,1.908-4.19c1.273-1.042,3.115-1.593,5.323-1.593
	c2.288,0,4.207,0.568,5.552,1.646c1.329,1.064,2.031,2.567,2.031,4.346v0.035h-3.877L106.416,35.912z M90.204,40.677
	c0-0.001,0-0.002,0-0.003H79.461c0.415,3.229,2.754,5.257,5.37,5.257h0.001c1.935,0,3.716-1.108,4.683-2.99h4.252
	c-1.249,4.194-4.899,6.759-8.934,6.757h-0.001h-0.001c-4.992,0.001-9.4-3.924-9.39-10.012c-0.011-7.342,5.548-9.818,9.39-9.818
	h0.001h0.001c3.842,0,9.4,2.476,9.39,9.818c0.001,0.337-0.014,0.667-0.04,0.991H90.204z M84.834,33.438h-0.002
	c-1.803,0-4.259,1.025-5.122,3.878h10.243C89.093,34.462,86.636,33.438,84.834,33.438z M69.826,23.947l4.33-0.001l0.002,25.267
	l-4.333-0.001L69.826,23.947z M58.657,49.698c-5.458,0-9.885-4.439-9.885-9.916c0-5.476,4.426-9.915,9.885-9.915
	c5.459,0,9.885,4.438,9.885,9.915C68.542,45.259,64.117,49.698,58.657,49.698z M58.657,33.833c-3.275,0-5.931,2.664-5.931,5.949
	c0,3.287,2.656,5.95,5.931,5.95c3.276,0,5.932-2.664,5.932-5.95C64.588,36.498,61.933,33.833,58.657,33.833z M38.298,45.733
	c2.413,0,4.487-1.447,5.414-3.521h4.17c-1.079,4.301-4.961,7.486-9.585,7.486c-5.459,0-9.884-4.439-9.884-9.916
	c0-5.476,4.425-9.915,9.884-9.915c4.624,0,8.505,3.185,9.585,7.486h-4.17c-0.927-2.074-3.001-3.52-5.414-3.52
	c-3.276,0-5.931,2.664-5.931,5.949C32.368,43.069,35.022,45.733,38.298,45.733z"/>
</svg>
